<?xml version="1.0" standalone="no"?>
<!DOCTYPE svg PUBLIC "-//W3C//DTD SVG 20010904//EN"
 "http://www.w3.org/TR/2001/REC-SVG-20010904/DTD/svg10.dtd">
<svg version="1.0" xmlns="http://www.w3.org/2000/svg"
 width="284.000000pt" height="284.000000pt" viewBox="0 0 284.000000 284.000000"
 preserveAspectRatio="xMidYMid meet">
<metadata>
Created by potrace 1.11, written by Peter Selinger 2001-2013
</metadata>
<g transform="translate(0.000000,284.000000) scale(0.100000,-0.100000)"
fill="#000000" stroke="none">
<path d="M1445 2533 c-343 -34 -620 -222 -806 -548 -12 -22 -42 -76 -67 -120
-161 -290 -248 -412 -421 -597 -108 -115 -143 -198 -140 -332 3 -139 37 -217
143 -322 299 -297 815 -402 1281 -259 247 75 504 229 694 414 40 40 74 71 76
69 1 -2 11 -20 21 -40 29 -58 103 -141 169 -190 51 -39 216 -138 229 -138 2 0
9 37 15 83 7 45 48 228 91 407 43 179 81 341 84 360 3 19 8 48 11 64 11 53 12
176 3 244 -29 215 -158 418 -312 492 -35 16 -71 30 -79 30 -45 0 -48 12 -13
51 l35 38 -17 41 c-24 57 -79 128 -131 167 l-43 34 -30 -40 c-16 -22 -50 -55
-75 -74 l-46 -34 -61 39 c-124 80 -268 134 -411 153 -52 7 -162 11 -200 8z
m219 -174 c146 -26 317 -112 414 -209 110 -109 203 -280 238 -435 13 -59 16
-227 4 -292 -43 -246 -200 -478 -455 -668 -192 -144 -385 -233 -605 -281 -102
-22 -341 -27 -445 -8 -229 40 -430 138 -559 271 -67 68 -81 103 -81 203 0 104
15 138 108 236 96 102 108 116 178 209 71 94 129 187 244 391 124 217 181 299
266 378 124 116 302 201 448 213 36 3 67 7 69 8 6 5 117 -5 176 -16z m646 -94
c0 -7 -12 -25 -26 -40 l-26 -28 -26 26 c-14 15 -24 28 -21 30 2 2 19 16 38 31
33 26 36 27 48 10 7 -10 13 -23 13 -29z m173 -289 c146 -85 236 -331 205 -559
-6 -49 -42 -220 -63 -307 -2 -8 -24 -94 -48 -190 -25 -96 -47 -188 -51 -203
l-7 -29 -37 28 c-80 60 -136 134 -158 210 l-15 52 50 87 c96 168 140 336 134
514 -4 111 -39 266 -83 358 -16 36 -30 69 -30 73 0 13 56 -6 103 -34z"/>
<path d="M2044 1463 c-22 -16 -25 -80 -3 -94 7 -5 25 -9 39 -9 39 0 54 15 54
55 0 52 -49 78 -90 48z"/>
<path d="M1939 1263 c-9 -2 -35 -32 -58 -66 -142 -217 -424 -379 -776 -447
-60 -12 -122 -26 -137 -32 -58 -22 -56 -114 3 -138 35 -15 125 -3 272 36 353
94 625 266 766 484 48 74 53 115 18 148 -22 21 -50 25 -88 15z"/>
</g>
</svg>
